# xmcd
#
# Track frame offsets:
#	150
#	16965
#	31887
#	51092
#	67817
#	83422
#	101650
#	119052
#	137042
#	149965
#	166620
#	184195
#	196425
#	211995
#	227330
#	241935
#	261665
#	283680
#	299350
#	312127
#
# Disc length: 4397 seconds
#
# Revision: 1
# Processed by: cddbd v1.4PL0 Copyright (c) Steve Scherf et al.
# Submitted via: audiograbber 1.81.03
#
DISCID=25112b14
DTITLE=Various Artist - The Funkiest Line*Dance Album In The World
DYEAR=1997
DGENRE=Country
TTITLE0=Swamp Honkys - Why´d Ya Pick On Me - Four Star Boogie
TTITLE1=Chip Hawkes - A Fool and His Money - Cajumn Mambo Walk
TTITLE2=Shot To Pieces - What A Maný Gotta Do - Walkin´Wazi
TTITLE3=Capricorn - Thinkin´About You - Boogie Bop
TTITLE4=Simon Richmond - I Don´t Do Sad Anymore - Wild Wild West
TTITLE5=Les Payne Posse - No Money - Walkin´Wazi
TTITLE6=Simon Richmond - Honky Tonk Ballroom  - Boogie Bop
TTITLE7=Phil Caffrey - Freeze - Boogie Bop
TTITLE8=Capricorn - Arlene - Walkin´Wazi
TTITLE9=Swamp Honkys - Outa My Head - Walkin´Wazi
TTITLE10=Shot To Pieces - Bullet Proof Vest - Walkin´Wazi(Turbo)
TTITLE11=Capricorn - Pucture Frame - Texas 2 Step
TTITLE12=Freddy Weller - R ´n´ R Time Capsule - Wild Wild West
TTITLE13=Swamp Honkys - I Must Be Stupid - Four Star Boogie
TTITLE14=Shot To Pieces - Don´t Let Go - Walkin´Wazi
TTITLE15=Simon Richmond - Whatever It Takes - Boogie Bop
TTITLE16=Corridor 38 - Born In Brtain - Cajun Mambo Walk
TTITLE17=Simon Richmond - Goodby Love (Hello Heartache) - Wild Wild West
TTITLE18=Capricorn - Hand Clappin´, Foot Tappin´Food Lookin´Girl - Walkin´Wazi
TTITLE19=Simon Richmond - Caroline - Boogie bop
EXTD=
EXTT0=
EXTT1=
EXTT2=
EXTT3=
EXTT4=
EXTT5=
EXTT6=
EXTT7=
EXTT8=
EXTT9=
EXTT10=
EXTT11=
EXTT12=
EXTT13=
EXTT14=
EXTT15=
EXTT16=
EXTT17=
EXTT18=
EXTT19=
PLAYORDER=
